<svg aria-hidden="true" style="position: absolute; width: 0; height: 0; overflow: hidden;" version="1.1" xmlns="http://www.w3.org/2000/svg" xmlns:xlink="http://www.w3.org/1999/xlink">
<defs>
<symbol id="icon-menu-02" viewBox="0 0 32 32" stroke="#e6533c">
<path  stroke-linejoin="round" stroke-linecap="round" stroke-miterlimit="4" stroke-width="2" d="M4 16h16M4 8h24M4 24h24"></path>
</symbol>
<symbol id="icon-Thumb_up" viewBox="0 0 52 32">
<path fill="#000" style="fill: var(--color2, #000)" d="M-7.234-18.643h69.844v69.418h-69.844v-69.418z"></path>
<path fill="#000" style="fill: var(--color2, #000)" d="M-7.235-18.643h69.844v69.418h-69.844v-69.418z"></path>
<path fill="#ef8964" style="fill: var(--color3, #ef8964)" d="M21.447 11.46c1.769 0.648 3.725 0.702 4.493 0.648 0.66 0.791 1.909 3.714 1.979 8.203 0.019 4.665-1.149 7.489-1.746 8.319-0.345 0.019-1.155 0.065-1.63 0.093s-2.247 0.197-3.073 0.278c0.175 0.44 1.071 1.597 1.781 1.909s1.246 0.417 3.073 0.59c1.828 0.174 5.902 0.509 6.763 0.509s2.561 0.127 4.132-1.273c2.119 0.035 5.436 0.15 8.672-0.22s4.633-3.564 5.029-4.836c0.396-1.273 1.094-4.767 0.675-7.474-1.024-6.34-3.119-7.567-4.749-8.307s-8.579-0.336-10.034-0.278c-1.513-1.365-3.69-1.145-4.33-1.111s-3.027 0.289-4.051 0.405c-1.024 0.116-3.446 0.428-4.214 0.567-0.803 0.185-1.653 0.324-2.77 1.978z"></path>
<path fill="#000" style="fill: var(--color2, #000)" opacity="0.7" d="M-7.235-18.643h69.844v69.418h-69.844v-69.418z"></path>
</symbol>
<symbol id="icon-pause-square" viewBox="0 0 33 32">
<path  stroke="#e6533c" stroke-linejoin="round" stroke-linecap="round" stroke-miterlimit="4" stroke-width="1" d="M4.5 10.4c0-2.24 0-3.36 0.436-4.216 0.383-0.753 0.995-1.365 1.748-1.748 0.856-0.436 1.976-0.436 4.216-0.436h11.2c2.24 0 3.36 0 4.216 0.436 0.753 0.383 1.364 0.995 1.748 1.748 0.436 0.856 0.436 1.976 0.436 4.216v11.2c0 2.24 0 3.36-0.436 4.216-0.384 0.753-0.995 1.364-1.748 1.748-0.856 0.436-1.976 0.436-4.216 0.436h-11.2c-2.24 0-3.36 0-4.216-0.436-0.753-0.384-1.365-0.995-1.748-1.748-0.436-0.856-0.436-1.976-0.436-4.216v-11.2z"></path>
<path  stroke-linejoin="round" stroke-linecap="round" stroke-miterlimit="4" stroke-width="1.3" d="M13.166 20v-8M19.833 20v-8"></path>
</symbol>
<symbol id="icon-right_arrow" viewBox="0 0 32 32">
<path  stroke-linejoin="round" stroke-linecap="round" stroke-miterlimit="4" stroke-width="2.7733" d="M16 29.867l13.867-13.867M29.867 16l-13.867-13.867M29.867 16h-27.733"></path>
</symbol>
<symbol id="icon-x18_18" viewBox="0 0 32 32">
<path  stroke-linejoin="round" stroke-linecap="round" stroke-miterlimit="4" stroke-width="3.5556" d="M24 8l-16 16"></path>
<path  stroke-linejoin="round" stroke-linecap="round" stroke-miterlimit="4" stroke-width="3.5556" d="M8 8l16 16"></path>
</symbol>
<symbol id="icon-D-Food-Icon-by-OdafeUI" viewBox="0 0 41 32">
<path d="M0 0h40.577v32h-40.577v-32z"></path>
</symbol>
<symbol id="icon-x26_26" viewBox="0 0 32 32">
<path  stroke-linejoin="round" stroke-linecap="round" stroke-miterlimit="4" stroke-width="2.4615" d="M24 8l-16 16"></path>
<path  stroke-linejoin="round" stroke-linecap="round" stroke-miterlimit="4" stroke-width="2.4615" d="M8 8l16 16"></path>
</symbol>
<symbol id="icon-chevron-down" viewBox="0 0 32 32">
<path  stroke-linejoin="round" stroke-linecap="round" stroke-miterlimit="4" stroke-width="3.5556" d="M8 12l8 8 8-8"></path>
</symbol>
<symbol id="icon-search" viewBox="0 0 32 32">
<path  stroke-linejoin="round" stroke-linecap="round" stroke-miterlimit="4" stroke-width="2.6667" d="M14.667 25.333c5.891 0 10.667-4.776 10.667-10.667s-4.776-10.667-10.667-10.667c-5.891 0-10.667 4.776-10.667 10.667s4.776 10.667 10.667 10.667z"></path>
<path  stroke-linejoin="round" stroke-linecap="round" stroke-miterlimit="4" stroke-width="2.6667" d="M28 28l-5.8-5.8"></path>
</symbol>
<symbol id="icon-x" viewBox="0 0 32 32">
<path  stroke-linejoin="round" stroke-linecap="round" stroke-miterlimit="4" stroke-width="3.5556" d="M24 8l-16 16"></path>
<path  stroke-linejoin="round" stroke-linecap="round" stroke-miterlimit="4" stroke-width="3.5556" d="M8 8l16 16"></path>
</symbol>
<symbol id="icon-trash-03" viewBox="0 0 32 32">
<path  stroke-linejoin="round" stroke-linecap="round" stroke-miterlimit="4" stroke-width="2.4" d="M12 4h8M13.333 14v6.667M18.667 14v6.667"></path>
<path  stroke-linejoin="round" stroke-linecap="round" stroke-miterlimit="4" stroke-width="2.4" d="M4 8h24M25.333 8l-0.935 14.026c-0.14 2.104-0.21 3.156-0.665 3.954-0.4 0.702-1.004 1.267-1.731 1.62-0.826 0.4-1.881 0.4-3.99 0.4h-4.025c-2.109 0-3.163 0-3.99-0.4-0.727-0.352-1.331-0.917-1.731-1.62-0.455-0.798-0.525-1.85-0.665-3.954l-0.935-14.026"></path>
</symbol>
<symbol id="icon-chevron-right" viewBox="0 0 32 32">
<path  d="M10.914 29.914l-2.828-2.828 11.586-11.586-11.586-11.586 2.828-2.828 14.414 14.414-14.414 14.414z"></path>
</symbol>
<symbol id="icon-tabler_exclamation-mark" viewBox="0 0 32 32">
<path  stroke-linejoin="round" stroke-linecap="round" stroke-miterlimit="4" stroke-width="2.6667" d="M16 25.333v0.013M16 20v-13.333"></path>
</symbol>
<symbol id="icon-check-mark" viewBox="0 0 33 32">
<path  d="M11.238 0.428l4.69 1.356c0.339 0.098 0.699 0.099 1.038 0.002l4.83-1.375c0.845-0.241 1.744 0.136 2.166 0.906l2.506 4.577c0.168 0.307 0.419 0.561 0.723 0.734l3.986 2.258c0.771 0.437 1.133 1.352 0.869 2.198l-1.381 4.428c-0.113 0.363-0.114 0.752-0.002 1.115l1.394 4.521c0.258 0.836-0.094 1.739-0.849 2.18l-4.443 2.597c-0.303 0.177-0.551 0.436-0.715 0.746l-2.114 4.004c-0.409 0.775-1.298 1.165-2.145 0.941l-4.863-1.284c-0.317-0.084-0.651-0.083-0.968 0.002l-4.715 1.264c-0.867 0.232-1.777-0.179-2.175-0.983l-2.106-4.256c-0.177-0.357-0.462-0.649-0.816-0.834l-4.304-2.247c-0.786-0.411-1.179-1.314-0.943-2.169l1.255-4.548c0.089-0.322 0.090-0.662 0.005-0.985l-1.288-4.843c-0.221-0.833 0.151-1.71 0.904-2.129l4.422-2.46c0.322-0.179 0.584-0.448 0.754-0.775l2.090-4.007c0.414-0.794 1.331-1.187 2.192-0.938z"></path>
<path  stroke-linejoin="round" stroke-linecap="round" stroke-miterlimit="4" stroke-width="2" d="M16.5 10.75v10.5"></path>
<path  stroke-linejoin="round" stroke-linecap="round" stroke-miterlimit="4" stroke-width="2" d="M11.25 16h10.5"></path>
</symbol>
<symbol id="icon-log-out-01" width="28" height="28" viewBox="0 0 32 32">
<path  stroke-linejoin="round" stroke-linecap="round" stroke-miterlimit="4" stroke-width="2.4" d="M12 4h-1.6c-2.24 0-3.36 0-4.216 0.436-0.753 0.383-1.365 0.995-1.748 1.748-0.436 0.856-0.436 1.976-0.436 4.216v11.2c0 2.24 0 3.36 0.436 4.216 0.383 0.753 0.995 1.364 1.748 1.748 0.856 0.436 1.976 0.436 4.216 0.436h1.6"></path>
<path  stroke-linejoin="round" stroke-linecap="round" stroke-miterlimit="4" stroke-width="2.4" d="M21.333 22.667l6.667-6.667M28 16l-6.667-6.667M28 16h-16"></path>
</symbol>
<symbol id="icon-gridicons_user" viewBox="0 0 32 32">
<path  opacity="0.1" d="M16 5.333c1.415 0 2.771 0.562 3.771 1.562s1.562 2.357 1.562 3.771-0.562 2.771-1.562 3.771c-1 1-2.357 1.562-3.771 1.562s-2.771-0.562-3.771-1.562c-1-1-1.562-2.357-1.562-3.771s0.562-2.771 1.562-3.771c1-1 2.357-1.562 3.771-1.562zM16 26.667c0 0 10.667 0 10.667-2.667 0-3.2-5.2-6.667-10.667-6.667s-10.667 3.467-10.667 6.667c0 2.667 10.667 2.667 10.667 2.667z"></path>
</symbol>
<symbol id="icon-settings-01" viewBox="0 0 32 32">
<path  stroke-linejoin="round" stroke-linecap="round" stroke-miterlimit="4" stroke-width="2.2857" d="M16 20c2.209 0 4-1.791 4-4s-1.791-4-4-4c-2.209 0-4 1.791-4 4s1.791 4 4 4z"></path>
<path  stroke-linejoin="round" stroke-linecap="round" stroke-miterlimit="4" stroke-width="2.2857" d="M24.97 19.636c-0.161 0.366-0.209 0.771-0.138 1.164s0.259 0.756 0.538 1.042l0.073 0.073c0.225 0.225 0.404 0.492 0.526 0.787s0.185 0.61 0.185 0.928c0 0.319-0.063 0.634-0.185 0.928s-0.301 0.562-0.526 0.787c-0.225 0.225-0.493 0.404-0.787 0.526s-0.61 0.185-0.928 0.185c-0.319 0-0.634-0.063-0.928-0.185s-0.562-0.301-0.787-0.526l-0.073-0.073c-0.286-0.279-0.648-0.467-1.042-0.538s-0.799-0.023-1.164 0.138c-0.358 0.154-0.664 0.409-0.88 0.734s-0.331 0.706-0.333 1.096v0.206c0 0.643-0.255 1.26-0.71 1.714s-1.071 0.71-1.714 0.71c-0.643 0-1.26-0.255-1.714-0.71s-0.71-1.071-0.71-1.714v-0.109c-0.009-0.401-0.139-0.79-0.373-1.117s-0.56-0.575-0.936-0.714c-0.366-0.161-0.771-0.209-1.164-0.138s-0.756 0.259-1.042 0.538l-0.073 0.073c-0.225 0.225-0.492 0.404-0.787 0.526s-0.61 0.185-0.928 0.185-0.634-0.063-0.928-0.185c-0.294-0.122-0.562-0.301-0.787-0.526s-0.404-0.493-0.526-0.787-0.185-0.61-0.185-0.928c0-0.319 0.063-0.634 0.185-0.928s0.301-0.562 0.526-0.787l0.073-0.073c0.279-0.286 0.467-0.648 0.538-1.042s0.023-0.799-0.138-1.164c-0.154-0.358-0.409-0.664-0.734-0.88s-0.706-0.331-1.096-0.332h-0.206c-0.643 0-1.26-0.255-1.714-0.71s-0.71-1.071-0.71-1.714c0-0.643 0.255-1.26 0.71-1.714s1.071-0.71 1.714-0.71h0.109c0.401-0.009 0.79-0.139 1.117-0.373s0.575-0.56 0.714-0.936c0.161-0.366 0.21-0.771 0.138-1.164s-0.259-0.756-0.538-1.042l-0.073-0.073c-0.225-0.225-0.404-0.492-0.526-0.787s-0.185-0.61-0.185-0.928c0-0.319 0.063-0.634 0.185-0.928s0.301-0.562 0.526-0.787c0.225-0.225 0.492-0.404 0.787-0.526s0.61-0.185 0.928-0.185c0.319 0 0.634 0.063 0.928 0.185s0.562 0.301 0.787 0.526l0.073 0.073c0.286 0.279 0.649 0.467 1.042 0.538s0.799 0.023 1.164-0.138h0.097c0.358-0.154 0.664-0.409 0.88-0.734s0.331-0.706 0.333-1.096v-0.206c0-0.643 0.255-1.26 0.71-1.714s1.071-0.71 1.714-0.71c0.643 0 1.26 0.255 1.714 0.71s0.71 1.071 0.71 1.714v0.109c0.002 0.39 0.117 0.771 0.332 1.096s0.521 0.58 0.88 0.734c0.366 0.161 0.771 0.209 1.164 0.138s0.756-0.259 1.042-0.538l0.073-0.073c0.225-0.225 0.493-0.404 0.787-0.526s0.61-0.185 0.928-0.185c0.319 0 0.634 0.063 0.928 0.185s0.562 0.301 0.787 0.526c0.226 0.225 0.404 0.492 0.526 0.787s0.185 0.61 0.185 0.928-0.063 0.634-0.185 0.928c-0.122 0.294-0.301 0.562-0.526 0.787l-0.073 0.073c-0.279 0.286-0.467 0.649-0.538 1.042s-0.023 0.799 0.138 1.164v0.097c0.154 0.358 0.409 0.664 0.734 0.88s0.706 0.331 1.096 0.332h0.206c0.643 0 1.26 0.255 1.714 0.71s0.71 1.071 0.71 1.714c0 0.643-0.255 1.26-0.71 1.714s-1.071 0.71-1.714 0.71h-0.109c-0.39 0.002-0.771 0.117-1.096 0.332s-0.58 0.521-0.734 0.88z"></path>
</symbol>
<symbol id="icon-back" viewBox="0 0 32 32">
<path  stroke-linejoin="round" stroke-linecap="round" stroke-miterlimit="4" stroke-width="2.4" d="M13.867 22.667l-6.667-6.667M7.2 16l6.667-6.667M7.2 16h16"></path>
</symbol>
<symbol id="icon-next" viewBox="0 0 32 32">
<path  stroke-linejoin="round" stroke-linecap="round" stroke-miterlimit="4" stroke-width="2.4" d="M18.133 22.667l6.667-6.667M24.8 16l-6.667-6.667M24.8 16h-16"></path>
</symbol>
<symbol id="icon-polygon" viewBox="-4 -2 29 36">
<path  d="M26.667 16l-26.667 15.396v-30.792l26.667 15.396z"></path>
</symbol>
<symbol id="icon-line" viewBox="0 0 87 32">
<path  stroke-linejoin="round" stroke-linecap="round" stroke-miterlimit="4" stroke-width="0.9275" d="M61.051 0.464c-20.416 0.3-65 3.913-60.233 22.304 4.284 12.985 65.327 10.195 80.388 0.425s-5.623-19.937-34.455-16.338"></path>
</symbol>
<symbol id="icon-eye-off" viewBox="0 0 32 32">
<path fill="none" stroke="#efede8" style="stroke: var(--color4, #efede8)" stroke-linejoin="round" stroke-linecap="round" stroke-miterlimit="4" stroke-width="2.88" d="M23.92 23.92c-2.279 1.737-5.055 2.7-7.92 2.747-9.333 0-14.667-10.667-14.667-10.667 1.659-3.091 3.959-5.791 6.747-7.92M13.2 5.653c0.918-0.215 1.857-0.322 2.8-0.32 9.333 0 14.667 10.667 14.667 10.667-0.809 1.514-1.775 2.94-2.88 4.253M18.827 18.827c-0.366 0.393-0.808 0.708-1.299 0.927s-1.020 0.336-1.557 0.346c-0.537 0.009-1.071-0.089-1.569-0.291s-0.95-0.501-1.33-0.88c-0.38-0.38-0.679-0.832-0.88-1.33s-0.3-1.032-0.29-1.569c0.009-0.537 0.127-1.067 0.346-1.558s0.534-0.932 0.927-1.298"></path>
<path fill="none" stroke="#efede8" style="stroke: var(--color4, #efede8)" stroke-linejoin="round" stroke-linecap="round" stroke-miterlimit="4" stroke-width="2.88" d="M1.333 1.333l29.333 29.333"></path>
</symbol>
<symbol id="icon-eye" viewBox="0 0 32 32">
<path fill="#d5d5d5" style="fill: var(--color5, #d5d5d5)" d="M0 0h32v32h-32v-32z"></path>
<path fill="#323232" style="fill: var(--color6, #323232)" d="M-1424-1059.2h2304v1795.2h-2304v-1795.2z"></path>
<path fill="none" stroke="#efede8" style="stroke: var(--color4, #efede8)" stroke-linejoin="round" stroke-linecap="round" stroke-miterlimit="4" stroke-width="2.88" d="M1.333 16c0 0 5.333-10.667 14.667-10.667s14.667 10.667 14.667 10.667-5.333 10.667-14.667 10.667c-9.333 0-14.667-10.667-14.667-10.667z"></path>
<path fill="none" stroke="#efede8" style="stroke: var(--color4, #efede8)" stroke-linejoin="round" stroke-linecap="round" stroke-miterlimit="4" stroke-width="2.88" d="M16 20c2.209 0 4-1.791 4-4s-1.791-4-4-4c-2.209 0-4 1.791-4 4s1.791 4 4 4z"></path>
<path fill="none" stroke="#e6533c" style="stroke: var(--color1, #e6533c)" stroke-linejoin="miter" stroke-linecap="butt" stroke-miterlimit="4" stroke-width="1.6" d="M-508.8-24.8h544c10.162 0 18.4 8.238 18.4 18.4v44.8c0 10.162-8.238 18.4-18.4 18.4h-544c-10.162 0-18.4-8.238-18.4-18.4v-44.8c0-10.162 8.238-18.4 18.4-18.4z"></path>
</symbol>
<symbol id="icon-calories" viewBox="0 0 32 32">
<path  d="M16.001 22.291c-0.946 0.72-2.898 2.5-2.898 4.925 0 1.601 1.3 2.904 2.897 2.904s2.897-1.303 2.897-2.904c0-2.297-1.954-4.161-2.895-4.925z"></path>
<path  d="M22.789 5.57c-0.351-0.397-0.958-0.421-1.34-0.064l-4.412 4.117v-8.623c0-0.722-0.87-1.261-1.522-0.867-0.123 0.075-3.055 1.865-6.017 5.116-3.602 3.953-6.055 8.766-6.055 14.164 0 6.941 5.633 12.587 12.557 12.587-2.631 0-4.772-2.146-4.772-4.784 0-4.262 4.138-6.786 4.314-6.891 0.309-0.184 0.695-0.176 0.996 0.022 0.173 0.114 4.234 2.838 4.234 6.869 0 2.638-2.141 4.784-4.772 4.784 6.924 0 12.557-5.647 12.557-12.587 0-5.241-2.313-9.938-5.767-13.843z"></path>
</symbol>
<symbol id="icon-running-stick-figure-svgrepo-com-1" viewBox="0 0 32 32">
<path  d="M29.647 9.451c-0.419-0.501-1.166-0.567-1.667-0.149l-3.282 2.757-1.509-3.739c-0.054-0.14-0.135-0.258-0.229-0.362-0.308-0.686-0.844-1.275-1.582-1.617-0.32-0.146-0.652-0.224-0.982-0.262-0.073-0.038-0.139-0.088-0.222-0.114l-5.775-1.61c-0.324-0.088-0.65-0.031-0.917 0.125-0.317 0.107-0.589 0.338-0.719 0.672l-2.175 5.592c-0.236 0.608 0.066 1.294 0.676 1.534 0.607 0.236 1.294-0.068 1.532-0.678l1.837-4.722 2.63 0.731c-0.064 0.104-0.133 0.201-0.185 0.312l-3.372 7.309c-0.049 0.107-0.075 0.217-0.109 0.328l-4.098 6.871-6.859 2.294c-0.776 0.58-0.941 1.674-0.367 2.45 0.577 0.778 1.674 0.943 2.448 0.369l7.018-2.417c0.215-0.156 0.371-0.36 0.489-0.58 0.088-0.094 0.189-0.168 0.256-0.284l2.443-4.096 4.337 3.696-4.641 5.23c-0.639 0.721-0.575 1.832 0.149 2.469 0.723 0.643 1.83 0.575 2.473-0.149l5.791-6.524c0.18-0.201 0.288-0.433 0.36-0.676 0.043-0.132 0.043-0.269 0.054-0.406 0-0.069 0.026-0.132 0.021-0.196-0.016-0.478-0.21-0.943-0.601-1.274l-3.991-3.403c0.288-0.274 0.532-0.6 0.709-0.983l2.585-5.599 0.828 2.206c0.035 0.196 0.1 0.388 0.239 0.549 0.125 0.149 0.284 0.248 0.454 0.317 0.017 0.009 0.038 0.010 0.059 0.016 0.107 0.038 0.216 0.075 0.329 0.080 0.133 0.012 0.269-0.005 0.405-0.043 0.004-0.002 0.005-0.002 0.005-0.002 0.036-0.009 0.073-0.002 0.109-0.017 0.192-0.073 0.34-0.196 0.466-0.34l4.71-3.998c0.501-0.421 0.289-1.166-0.132-1.667z"></path>
<path  d="M23.689 6.602c1.823 0 3.301-1.478 3.301-3.301s-1.478-3.301-3.301-3.301c-1.823 0-3.301 1.478-3.301 3.301s1.478 3.301 3.301 3.301z"></path>
</symbol>
<symbol id="icon-bubble" viewBox="0 0 32 32">
<path  d="M0 0h32v32h-32v-32z"></path>
<path  d="M-2032-131.2h2304v1795.2h-2304v-1795.2z"></path>
<path  d="M20.793 16.346c3.778 0 6.84-3.062 6.84-6.84s-3.062-6.84-6.84-6.84c-3.778 0-6.84 3.062-6.84 6.84s3.062 6.84 6.84 6.84z"></path>
<path  d="M8.476 25.919c2.268 0 4.107-1.839 4.107-4.107s-1.839-4.107-4.107-4.107c-2.268 0-4.107 1.839-4.107 4.107s1.839 4.107 4.107 4.107z"></path>
<path  d="M22.151 29.332c1.885 0 3.413-1.528 3.413-3.413s-1.528-3.413-3.413-3.413c-1.885 0-3.413 1.528-3.413 3.413s1.528 3.413 3.413 3.413z"></path>
</symbol>
<symbol id="icon-dumbbell" viewBox="0 0 32 32">
<path  d="M5.2 8h-2.4c-0.665 0-1.2 0.535-1.2 1.2v5.2h-1.2c-0.22 0-0.4 0.18-0.4 0.4v2.4c0 0.22 0.18 0.4 0.4 0.4h1.2v5.2c0 0.665 0.535 1.2 1.2 1.2h2.4c0.665 0 1.2-0.535 1.2-1.2v-13.6c0-0.665-0.535-1.2-1.2-1.2zM31.6 14.4h-1.2v-5.2c0-0.665-0.535-1.2-1.2-1.2h-2.4c-0.665 0-1.2 0.535-1.2 1.2v13.6c0 0.665 0.535 1.2 1.2 1.2h2.4c0.665 0 1.2-0.535 1.2-1.2v-5.2h1.2c0.22 0 0.4-0.18 0.4-0.4v-2.4c0-0.22-0.18-0.4-0.4-0.4zM22.8 4.8h-2.4c-0.665 0-1.2 0.535-1.2 1.2v8.4h-6.4v-8.4c0-0.665-0.535-1.2-1.2-1.2h-2.4c-0.665 0-1.2 0.535-1.2 1.2v20c0 0.665 0.535 1.2 1.2 1.2h2.4c0.665 0 1.2-0.535 1.2-1.2v-8.4h6.4v8.4c0 0.665 0.535 1.2 1.2 1.2h2.4c0.665 0 1.2-0.535 1.2-1.2v-20c0-0.665-0.535-1.2-1.2-1.2z"></path>
</symbol>
<symbol id="icon-fluent_food-24-filled" viewBox="0 0 32 32">
<path  d="M24 4c0.327 0 0.642 0.12 0.886 0.337s0.4 0.516 0.438 0.84l0.009 0.156v21.333c-0 0.34-0.131 0.667-0.364 0.914s-0.552 0.396-0.891 0.416c-0.339 0.020-0.673-0.090-0.934-0.308s-0.428-0.528-0.468-0.865l-0.009-0.156v-6.667h-1.333c-0.327 0-0.642-0.12-0.886-0.337s-0.4-0.516-0.438-0.84l-0.009-0.156v-8c0-2.947 2-6.667 4-6.667zM16 4c0.327 0 0.642 0.12 0.886 0.337s0.4 0.516 0.438 0.84l0.009 0.156v6.667c-0 1.183-0.393 2.331-1.117 3.266s-1.738 1.603-2.883 1.899v9.501c-0 0.34-0.13 0.667-0.364 0.914s-0.552 0.396-0.891 0.416c-0.339 0.020-0.673-0.090-0.934-0.308s-0.428-0.528-0.468-0.865l-0.009-0.156v-9.501c-1.099-0.284-2.079-0.912-2.798-1.791s-1.137-1.965-1.196-3.099l-0.007-0.275v-6.667c0-0.34 0.13-0.667 0.364-0.914s0.552-0.396 0.891-0.416c0.339-0.020 0.673 0.090 0.934 0.309s0.428 0.528 0.468 0.865l0.009 0.156v6.667c0 0.468 0.123 0.928 0.357 1.333s0.571 0.742 0.976 0.976v-8.976c0-0.34 0.13-0.667 0.364-0.914s0.552-0.396 0.891-0.416c0.339-0.020 0.673 0.090 0.934 0.309s0.428 0.528 0.468 0.865l0.009 0.156 0.001 8.976c0.372-0.215 0.687-0.517 0.917-0.88s0.37-0.776 0.406-1.204l0.009-0.225v-6.667c0-0.354 0.14-0.693 0.391-0.943s0.589-0.391 0.943-0.391z"></path>
</symbol>
<symbol id="icon-fluent_food-apple-20-filled" viewBox="0 0 32 32">
<path  d="M19.454 4.758c0.102-0.031 0.198-0.082 0.28-0.151s0.15-0.153 0.199-0.248 0.079-0.199 0.087-0.306c0.008-0.107-0.005-0.214-0.039-0.315s-0.088-0.195-0.159-0.275c-0.071-0.080-0.157-0.146-0.253-0.192s-0.201-0.073-0.308-0.078c-0.107-0.005-0.214 0.011-0.314 0.048-1.501 0.499-2.435 1.731-2.986 3.051-0.074 0.178-0.142 0.359-0.203 0.542-0.3-0.568-0.683-1.087-1.138-1.541-0.615-0.616-1.35-1.1-2.159-1.422s-1.675-0.475-2.546-0.45c-0.928 0.026-1.669 0.768-1.694 1.694-0.025 0.87 0.128 1.737 0.45 2.546s0.806 1.543 1.422 2.159l0.050 0.048c-1.344 0.291-2.559 1.007-3.464 2.042s-1.454 2.334-1.563 3.705l-0.010 0.118c-0.211 2.636 0.35 5.275 1.616 7.597l0.576 1.053c0.016 0.027 0.032 0.054 0.051 0.080l1.6 2.243c0.363 0.508 0.832 0.931 1.374 1.239s1.146 0.495 1.768 0.546c0.622 0.051 1.248-0.033 1.833-0.248s1.118-0.555 1.559-0.996c0.068-0.068 0.148-0.122 0.237-0.158s0.183-0.056 0.279-0.056c0.096 0 0.191 0.019 0.279 0.056s0.169 0.090 0.237 0.158c0.441 0.441 0.973 0.781 1.559 0.996s1.212 0.3 1.833 0.248c0.622-0.052 1.225-0.238 1.768-0.546s1.012-0.731 1.374-1.239l1.6-2.242c0.019-0.026 0.036-0.053 0.051-0.082l0.574-1.053c1.266-2.321 1.827-4.961 1.616-7.597l-0.008-0.118c-0.071-0.884-0.324-1.743-0.745-2.523s-0.998-1.465-1.697-2.010-1.503-0.94-2.362-1.158c-0.859-0.218-1.754-0.256-2.628-0.11l-2.651 0.442c0.016-1.090 0.208-2.315 0.638-3.349 0.448-1.080 1.114-1.848 2.013-2.149h0.002zM11.054 14.358c-0.246 0.078-0.473 0.203-0.67 0.369s-0.359 0.37-0.477 0.599c-0.296 0.557-0.499 1.475-0.312 2.974 0.021 0.208-0.040 0.416-0.17 0.579s-0.319 0.269-0.526 0.295c-0.207 0.026-0.416-0.030-0.583-0.157s-0.277-0.313-0.308-0.519c-0.213-1.702-0.016-2.984 0.488-3.926 0.512-0.96 1.291-1.478 2.053-1.733 0.1-0.033 0.205-0.046 0.31-0.039s0.207 0.036 0.301 0.083c0.094 0.047 0.178 0.112 0.247 0.191s0.121 0.172 0.155 0.271c0.033 0.1 0.046 0.205 0.039 0.31s-0.036 0.207-0.083 0.301c-0.047 0.094-0.112 0.178-0.191 0.247s-0.172 0.121-0.271 0.155z"></path>
</symbol>
<symbol id="icon-calendar" viewBox="0 0 32 32">
<path  stroke-linejoin="round" stroke-linecap="round" stroke-miterlimit="4" stroke-width="2.6667" d="M25.333 5.333h-18.667c-1.473 0-2.667 1.194-2.667 2.667v18.667c0 1.473 1.194 2.667 2.667 2.667h18.667c1.473 0 2.667-1.194 2.667-2.667v-18.667c0-1.473-1.194-2.667-2.667-2.667z"></path>
<path  stroke-linejoin="round" stroke-linecap="round" stroke-miterlimit="4" stroke-width="2.6667" d="M21.333 2.667v5.333"></path>
<path  stroke-linejoin="round" stroke-linecap="round" stroke-miterlimit="4" stroke-width="2.6667" d="M10.667 2.667v5.333"></path>
<path  stroke-linejoin="round" stroke-linecap="round" stroke-miterlimit="4" stroke-width="2.6667" d="M4 13.333h24"></path>
</symbol>
<symbol id="icon-logo36_13" viewBox="0 0 89 32">
<path  d="M86.33 13.714c1.263 0 2.286 1.023 2.286 2.286s-1.023 2.286-2.286 2.286h-1.582c-1.359 0-2.462 1.102-2.462 2.462v4.22c0 1.359-1.102 2.462-2.462 2.462h-1.583c-1.262 0-2.286 1.023-2.286 2.286s-1.023 2.286-2.286 2.286h-4.747c-1.359 0-2.462-1.102-2.462-2.462v-8.791c0-1.359-1.102-2.462-2.462-2.462h-39.385c-1.359 0-2.462 1.102-2.462 2.462v8.791c0 1.36-1.102 2.462-2.462 2.462h-4.747c-1.262 0-2.286-1.023-2.286-2.286s-1.023-2.286-2.286-2.286h-1.582c-1.359 0-2.462-1.102-2.462-2.462v-4.22c0-1.359-1.102-2.462-2.462-2.462h-1.582c-1.262 0-2.286-1.023-2.286-2.286s1.023-2.286 2.286-2.286h1.582c1.359 0 2.462-1.102 2.462-2.462v-4.22c0-1.359 1.102-2.462 2.462-2.462h1.582c1.262 0 2.286-1.023 2.286-2.286s1.023-2.286 2.286-2.286h4.747c1.359 0 2.462 1.102 2.462 2.462v8.791c0 1.359 1.102 2.462 2.462 2.462h39.385c1.359 0 2.462-1.102 2.462-2.462v-8.791c0-1.359 1.102-2.462 2.462-2.462h4.747c1.262 0 2.286 1.023 2.286 2.286s1.023 2.286 2.286 2.286h1.583c1.359 0 2.462 1.102 2.462 2.462v4.22c0 1.359 1.102 2.462 2.462 2.462h1.582z"></path>
</symbol>
<symbol id="icon-logo44_17" viewBox="0 0 83 32">
<path  d="M0 0h82.824v32h-82.824v-32z"></path>
<path  d="M-1355.294-152.471h2710.588v2112h-2710.588v-2112z"></path>
<path  d="M80.941 13.714c1.040 0 1.882 0.843 1.882 1.882v0.807c0 1.040-0.843 1.882-1.882 1.882h-2.151c-1.039 0-1.882 0.843-1.882 1.882v5.378c0 1.040-0.843 1.882-1.882 1.882h-2.151c-1.040 0-1.882 0.843-1.882 1.882v0.807c0 1.040-0.843 1.882-1.882 1.882h-5.109c-1.040 0-1.882-0.843-1.882-1.882v-9.95c0-1.040-0.843-1.882-1.882-1.882h-37.647c-1.040 0-1.882 0.843-1.882 1.882v9.95c0 1.040-0.843 1.882-1.882 1.882h-5.109c-1.040 0-1.882-0.843-1.882-1.882v-0.807c0-1.040-0.843-1.882-1.882-1.882h-2.151c-1.040 0-1.882-0.843-1.882-1.882v-5.378c0-1.040-0.843-1.882-1.882-1.882h-2.151c-1.040 0-1.882-0.843-1.882-1.882v-0.807c0-1.040 0.843-1.882 1.882-1.882h2.151c1.040 0 1.882-0.843 1.882-1.882v-5.378c0-1.040 0.843-1.882 1.882-1.882h2.151c1.040 0 1.882-0.843 1.882-1.882v-0.807c0-1.040 0.843-1.882 1.882-1.882h5.109c1.040 0 1.882 0.843 1.882 1.882v9.95c0 1.040 0.843 1.882 1.882 1.882h37.647c1.040 0 1.882-0.843 1.882-1.882v-9.95c0-1.040 0.843-1.882 1.882-1.882h5.109c1.040 0 1.882 0.843 1.882 1.882v0.807c0 1.040 0.843 1.882 1.882 1.882h2.151c1.040 0 1.882 0.843 1.882 1.882v5.378c0 1.040 0.843 1.882 1.882 1.882h2.151z"></path>
</symbol>
<symbol id="icon-PowerPulse" viewBox="0 0 188 30">
<path d="M-0.459 29.94v-26.481h9.458c1.438 0 2.736 0.359 3.897 1.078 1.173 0.719 2.1 1.683 2.781 2.894s1.021 2.541 1.021 3.991c0 1.488-0.353 2.837-1.059 4.048-0.694 1.198-1.627 2.156-2.799 2.875-1.173 0.706-2.453 1.059-3.84 1.059h-4.842v10.536h-4.615zM4.157 14.789h4.351c0.656 0 1.255-0.164 1.797-0.492s0.971-0.769 1.286-1.324c0.328-0.555 0.492-1.173 0.492-1.854 0-0.694-0.164-1.318-0.492-1.873-0.315-0.555-0.744-0.996-1.286-1.324s-1.141-0.492-1.797-0.492h-4.351v7.358z"></path>
<path d="M27.186 30.432c-1.74 0-3.329-0.448-4.767-1.343-1.425-0.895-2.566-2.093-3.424-3.594-0.845-1.513-1.267-3.184-1.267-5.013 0-1.387 0.246-2.68 0.738-3.878 0.492-1.211 1.166-2.27 2.024-3.178 0.87-0.921 1.879-1.639 3.026-2.156s2.371-0.775 3.67-0.775c1.74 0 3.323 0.448 4.748 1.343 1.438 0.895 2.579 2.1 3.424 3.613 0.858 1.513 1.286 3.19 1.286 5.031 0 1.375-0.246 2.661-0.738 3.859s-1.173 2.257-2.043 3.178c-0.857 0.908-1.86 1.62-3.008 2.137-1.135 0.517-2.358 0.776-3.67 0.776zM27.186 25.817c0.921 0 1.747-0.246 2.478-0.738s1.305-1.141 1.721-1.948c0.429-0.807 0.643-1.69 0.643-2.648 0-0.984-0.221-1.879-0.662-2.686-0.429-0.82-1.015-1.469-1.759-1.948-0.731-0.492-1.538-0.738-2.421-0.738-0.908 0-1.727 0.246-2.459 0.738s-1.311 1.147-1.74 1.967c-0.429 0.82-0.643 1.709-0.643 2.667 0 0.996 0.221 1.898 0.662 2.705s1.028 1.45 1.759 1.929c0.744 0.467 1.551 0.7 2.421 0.7z"></path>
<path d="M48.462 29.94h-4.577l-6.318-18.915h4.521l4.105 12.238 4.086-12.238h4.559l4.086 12.238 4.105-12.238h4.521l-6.318 18.915h-4.577l-4.105-12.295-4.086 12.295z"></path>
<path d="M77.947 30.432c-1.74 0-3.329-0.448-4.767-1.343-1.425-0.895-2.566-2.1-3.424-3.613-0.845-1.513-1.267-3.184-1.267-5.013 0-1.375 0.246-2.661 0.738-3.859 0.492-1.211 1.166-2.27 2.024-3.178 0.87-0.921 1.879-1.639 3.026-2.156s2.371-0.775 3.67-0.775c1.475 0 2.825 0.315 4.048 0.946 1.236 0.618 2.282 1.469 3.14 2.554s1.482 2.32 1.873 3.707c0.391 1.387 0.479 2.837 0.265 4.351h-13.827c0.177 0.706 0.466 1.343 0.87 1.91 0.403 0.555 0.914 1.003 1.532 1.343 0.618 0.328 1.318 0.498 2.1 0.511 0.807 0.013 1.538-0.177 2.194-0.567 0.668-0.404 1.223-0.946 1.665-1.627l4.71 1.097c-0.769 1.677-1.917 3.052-3.443 4.124-1.526 1.059-3.234 1.589-5.126 1.589zM73.293 18.591h9.306c-0.139-0.757-0.435-1.438-0.889-2.043-0.442-0.618-0.99-1.11-1.646-1.475s-1.362-0.549-2.118-0.549-1.456 0.183-2.1 0.549c-0.643 0.353-1.192 0.839-1.646 1.456-0.442 0.605-0.744 1.293-0.908 2.062z"></path>
<path d="M90.368 29.94l-0.019-18.915h4.615l0.019 1.683c0.643-0.681 1.412-1.217 2.308-1.608 0.895-0.404 1.86-0.605 2.894-0.605 0.694 0 1.387 0.101 2.081 0.303l-1.816 4.653c-0.479-0.189-0.958-0.284-1.438-0.284-0.744 0-1.425 0.183-2.043 0.549-0.605 0.353-1.091 0.839-1.456 1.456-0.353 0.605-0.53 1.28-0.53 2.024v10.744h-4.615z"></path>
<path d="M104.388 29.94v-26.481h9.458c1.438 0 2.736 0.359 3.897 1.078 1.173 0.719 2.1 1.683 2.781 2.894s1.021 2.541 1.021 3.991c0 1.488-0.353 2.837-1.059 4.048-0.694 1.198-1.627 2.156-2.799 2.875-1.173 0.706-2.453 1.059-3.84 1.059h-4.842v10.536h-4.615zM109.003 14.789h4.351c0.656 0 1.255-0.164 1.797-0.492s0.971-0.769 1.286-1.324c0.328-0.555 0.492-1.173 0.492-1.854 0-0.694-0.164-1.318-0.492-1.873-0.315-0.555-0.744-0.996-1.286-1.324s-1.141-0.492-1.797-0.492h-4.351v7.358z"></path>
<path d="M123.507 22.942v-11.917h4.615v10.706c0 0.744 0.183 1.425 0.549 2.043 0.366 0.605 0.851 1.091 1.456 1.456 0.618 0.353 1.292 0.53 2.024 0.53 0.757 0 1.438-0.177 2.043-0.53 0.605-0.366 1.091-0.851 1.456-1.456 0.366-0.618 0.549-1.299 0.549-2.043v-10.706h4.615l0.019 18.915h-4.615l-0.019-1.721c-0.656 0.681-1.431 1.223-2.327 1.627-0.895 0.391-1.854 0.586-2.875 0.586-1.375 0-2.629-0.334-3.764-1.003-1.135-0.681-2.043-1.583-2.724-2.705-0.668-1.135-1.003-2.396-1.003-3.783z"></path>
<path d="M144.731 29.94v-28.373h4.615v28.373h-4.615z"></path>
<path d="M159.473 30.281c-0.984-0.063-1.936-0.259-2.856-0.586-0.908-0.34-1.715-0.801-2.421-1.381s-1.248-1.274-1.627-2.081l3.897-1.665c0.151 0.252 0.397 0.523 0.738 0.813 0.34 0.277 0.744 0.511 1.211 0.7 0.479 0.189 1.003 0.284 1.57 0.284 0.479 0 0.933-0.063 1.362-0.189 0.441-0.139 0.794-0.347 1.059-0.624 0.277-0.277 0.416-0.637 0.416-1.078 0-0.467-0.164-0.826-0.492-1.078-0.315-0.265-0.719-0.46-1.211-0.586-0.479-0.139-0.946-0.265-1.4-0.378-1.198-0.24-2.314-0.612-3.348-1.116-1.021-0.505-1.847-1.154-2.478-1.948-0.618-0.807-0.927-1.778-0.927-2.913 0-1.248 0.328-2.327 0.984-3.235 0.668-0.908 1.532-1.608 2.591-2.1 1.072-0.492 2.226-0.738 3.462-0.738 1.501 0 2.875 0.315 4.124 0.946 1.261 0.618 2.257 1.494 2.989 2.629l-3.651 2.156c-0.177-0.303-0.423-0.58-0.738-0.832-0.315-0.265-0.675-0.479-1.078-0.643-0.404-0.177-0.826-0.277-1.267-0.303-0.567-0.025-1.085 0.025-1.551 0.151s-0.845 0.34-1.135 0.643c-0.278 0.303-0.416 0.706-0.416 1.211 0 0.479 0.189 0.839 0.567 1.078 0.378 0.227 0.832 0.404 1.362 0.53 0.542 0.126 1.059 0.265 1.551 0.416 1.11 0.366 2.15 0.813 3.121 1.343 0.984 0.53 1.772 1.179 2.364 1.948s0.876 1.69 0.851 2.762c0 1.223-0.366 2.295-1.097 3.216-0.731 0.908-1.677 1.602-2.837 2.081-1.148 0.479-2.377 0.668-3.689 0.567z"></path>
<path d="M178.36 30.432c-1.74 0-3.329-0.448-4.767-1.343-1.425-0.895-2.566-2.1-3.424-3.613-0.845-1.513-1.267-3.184-1.267-5.013 0-1.375 0.246-2.661 0.738-3.859 0.492-1.211 1.167-2.27 2.024-3.178 0.87-0.921 1.879-1.639 3.026-2.156s2.371-0.775 3.67-0.775c1.475 0 2.825 0.315 4.048 0.946 1.236 0.618 2.282 1.469 3.14 2.554s1.482 2.32 1.873 3.707c0.391 1.387 0.479 2.837 0.265 4.351h-13.827c0.177 0.706 0.467 1.343 0.87 1.91 0.404 0.555 0.914 1.003 1.532 1.343 0.618 0.328 1.318 0.498 2.1 0.511 0.807 0.013 1.539-0.177 2.194-0.567 0.668-0.404 1.223-0.946 1.665-1.627l4.71 1.097c-0.769 1.677-1.917 3.052-3.443 4.124-1.526 1.059-3.234 1.589-5.126 1.589zM173.707 18.591h9.306c-0.139-0.757-0.435-1.438-0.889-2.043-0.441-0.618-0.99-1.11-1.646-1.475s-1.362-0.549-2.119-0.549-1.456 0.183-2.1 0.549c-0.643 0.353-1.192 0.839-1.646 1.456-0.441 0.605-0.744 1.293-0.908 2.062z"></path>
</symbol>
<symbol id="icon-avatar" width="28" height="28" viewBox="0 0 24 24" fill="none">
<path d="M12 4C13.0609 4 14.0783 4.42143 14.8284 5.17157C15.5786 5.92172 16 6.93914 16 8C16 9.06087 15.5786 10.0783 14.8284 10.8284C14.0783 11.5786 13.0609 12 12 12C10.9391 12 9.92172 11.5786 9.17158 10.8284C8.42143 10.0783 8 9.06087 8 8C8 6.93914 8.42143 5.92172 9.17158 5.17157C9.92172 4.42143 10.9391 4 12 4ZM12 20C12 20 20 20 20 18C20 15.6 16.1 13 12 13C7.9 13 4 15.6 4 18C4 20 12 20 12 20Z" fill="#EFEDE8" fill-opacity="0.1"/>
</symbol>
<symbol id="icon-cross" width="24" height="24" viewBox="0 0 24 24" fill="none">
<path d="M18 6L6 18M6 6L18 18" stroke="#EFEDE8" stroke-width="2" stroke-linecap="round" stroke-linejoin="round"/>
</symbol>
<symbol fill="none" xmlns="http://www.w3.org/2000/svg" viewBox="0 0 103 102" id="gridicons_user">
    <g id="gridicons:user">
      <path id="Vector" d="M51.5 17C56.0087 17 60.3327 18.7911 63.5208 21.9792C66.709 25.1673 68.5 29.4913 68.5 34C68.5 38.5087 66.709 42.8327 63.5208 46.0208C60.3327 49.209 56.0087 51 51.5 51C46.9913 51 42.6673 49.209 39.4792 46.0208C36.2911 42.8327 34.5 38.5087 34.5 34C34.5 29.4913 36.2911 25.1673 39.4792 21.9792C42.6673 18.7911 46.9913 17 51.5 17ZM51.5 85C51.5 85 85.5 85 85.5 76.5C85.5 66.3 68.925 55.25 51.5 55.25C34.075 55.25 17.5 66.3 17.5 76.5C17.5 85 51.5 85 51.5 85Z" fill="#EFEDE8" fill-opacity="0.1"></path>
    </g>
  </symbol>
  <symbol fill="none" xmlns="http://www.w3.org/2000/svg" viewBox="0 0 33 32" id="check mark">
    <g id="check mark">
      <path id="Vector 5" d="M11.2382 0.427845L15.9284 1.78405C16.2674 1.88208 16.6272 1.88283 16.9666 1.78621L21.7966 0.411303C22.6418 0.170715 23.5409 0.546916 23.963 1.31768L26.4694 5.89504C26.6375 6.20214 26.888 6.45626 27.1927 6.62883L31.1787 8.88671C31.9497 9.32347 32.3117 10.2389 32.0479 11.0849L30.6672 15.513C30.554 15.876 30.5534 16.2648 30.6655 16.6282L32.06 21.1493C32.3177 21.9849 31.9661 22.8879 31.2113 23.3292L26.768 25.9266C26.4649 26.1039 26.2173 26.3624 26.0534 26.673L23.9399 30.6768C23.531 31.4515 22.6418 31.8417 21.7948 31.6181L16.9314 30.3344C16.6141 30.2507 16.2804 30.2513 15.9635 30.3363L11.2488 31.6004C10.3822 31.8328 9.47213 31.4213 9.07421 30.6172L6.96789 26.3608C6.79108 26.0035 6.50542 25.7116 6.15206 25.5271L1.84775 23.2796C1.06147 22.869 0.668508 21.9652 0.904481 21.1102L2.1597 16.562C2.24855 16.24 2.25014 15.9002 2.16431 15.5775L0.876636 10.735C0.655154 9.90215 1.02762 9.02522 1.7808 8.60629L6.20271 6.1468C6.52438 5.96789 6.78654 5.69859 6.95674 5.37222L9.04628 1.36568C9.4606 0.571256 10.3774 0.178965 11.2382 0.427845Z" fill="#E6533C"></path>
      <path id="Vector" d="M16.5 10.75V21.25" stroke="#EFEDE8" stroke-width="2" stroke-linecap="round" stroke-linejoin="round"></path>
      <path id="Vector_2" d="M11.25 16H21.75" stroke="#EFEDE8" stroke-width="2" stroke-linecap="round" stroke-linejoin="round"></path>
    </g>
  </symbol>
    <symbol fill="none" xmlns="http://www.w3.org/2000/svg" viewBox="0 0 24 24" id="tabler_exclamation-mark">
    <g id="tabler:exclamation-mark">
      <path id="Vector" d="M12 19V19.01M12 15V5" stroke="#EFEDE8" stroke-width="2" stroke-linecap="round" stroke-linejoin="round"></path>
    </g>
  </symbol>
   <symbol fill="none" xmlns="http://www.w3.org/2000/svg" viewBox="0 0 20 20" id="log-out-01 (1)">
    <g id="log-out-01">
      <path id="Accent" d="M7.5 2.5H6.5C5.09987 2.5 4.3998 2.5 3.86502 2.77248C3.39462 3.01217 3.01217 3.39462 2.77248 3.86502C2.5 4.3998 2.5 5.09987 2.5 6.5V13.5C2.5 14.9001 2.5 15.6002 2.77248 16.135C3.01217 16.6054 3.39462 16.9878 3.86502 17.2275C4.3998 17.5 5.09987 17.5 6.5 17.5H7.5" stroke="#E6533C" stroke-width="1.5" stroke-linecap="round" stroke-linejoin="round"></path>
      <path id="Icon" d="M13.3333 14.1667L17.5 10M17.5 10L13.3333 5.83337M17.5 10H7.5" stroke="#E6533C" stroke-width="1.5" stroke-linecap="round" stroke-linejoin="round"></path>
    </g>
  </symbol>
</s>
</defs>
</svg>
