<svg width="16" height="16" viewBox="0 0 16 16" fill="none" xmlns="http://www.w3.org/2000/svg">
<g clip-path="url(#clip0_118_194)">
<path d="M14.8234 4.72537C14.6138 4.47498 14.2403 4.44206 13.9899 4.65086L12.349 6.02932L11.5943 4.15961C11.5675 4.08943 11.5267 4.03051 11.4799 3.97853C11.3257 3.63543 11.058 3.34085 10.6889 3.17017C10.5286 3.09739 10.3631 3.0584 10.1977 3.03934C10.1613 3.02028 10.1283 2.99515 10.0868 2.98216L7.19901 2.17726C7.03699 2.13307 6.87411 2.16167 6.74068 2.23964C6.58213 2.29336 6.4461 2.40859 6.38112 2.57581L5.29378 5.37172C5.17594 5.67583 5.3267 6.01892 5.63168 6.13849C5.93492 6.25632 6.27888 6.1047 6.39758 5.79972L7.31598 3.43876L8.63119 3.80438C8.59913 3.85636 8.56447 3.90488 8.53848 3.96033L6.85245 7.61485C6.82819 7.66857 6.81519 7.72315 6.79786 7.7786L4.7488 11.2139L1.31955 12.361C0.931399 12.6513 0.84909 13.198 1.13587 13.5862C1.42439 13.9752 1.97282 14.0575 2.36011 13.7707L5.86907 12.5621C5.97651 12.4841 6.05448 12.3818 6.1134 12.2718C6.15759 12.225 6.20784 12.1878 6.24163 12.1297L7.46327 10.0815L9.63189 11.9296L7.31165 14.5444C6.99194 14.9048 7.024 15.4602 7.38616 15.779C7.74745 16.1005 8.30108 16.0667 8.62252 15.7045L11.5181 12.4425C11.6082 12.342 11.6619 12.2259 11.6983 12.1046C11.7199 12.0387 11.7199 11.9703 11.7251 11.9019C11.7251 11.8672 11.7381 11.836 11.7355 11.8039C11.7277 11.5648 11.6307 11.3326 11.4349 11.1671L9.43955 9.46551C9.58337 9.32861 9.70554 9.16573 9.79391 8.97425L11.0866 6.17488L11.5007 7.27782C11.5181 7.37572 11.551 7.4719 11.6203 7.55247C11.6827 7.62698 11.7624 7.67637 11.8473 7.71102C11.856 7.71536 11.8664 7.71622 11.8768 7.71882C11.9305 7.73788 11.9851 7.75608 12.0414 7.75868C12.1081 7.76474 12.1757 7.75608 12.2441 7.73702C12.2459 7.73615 12.2467 7.73615 12.2467 7.73615C12.2649 7.73182 12.2831 7.73528 12.3013 7.72749C12.3975 7.6911 12.4711 7.62958 12.5344 7.55767L14.8893 5.55886C15.1397 5.34832 15.034 4.97577 14.8234 4.72537Z" fill="#EFEDE8"/>
<path d="M11.8439 3.30102C12.7554 3.30102 13.4944 2.56206 13.4944 1.65051C13.4944 0.738959 12.7554 0 11.8439 0C10.9323 0 10.1934 0.738959 10.1934 1.65051C10.1934 2.56206 10.9323 3.30102 11.8439 3.30102Z" fill="#EFEDE8"/>
</g>
<defs>
<clipPath id="clip0_118_194">
<rect width="16" height="16" fill="white"/>
</clipPath>
</defs>
</svg>
