<svg aria-hidden="true" style="position: absolute; width: 0; height: 0; overflow: hidden;" version="1.1"
    xmlns="http://www.w3.org/2000/svg" xmlns:xlink="http://www.w3.org/1999/xlink">
    <defs>
        <symbol id="icon-Daily-calorie-intake" viewBox="0 0 32 32">
            <path fill="#ef8964" style="fill: var(--color1, #ef8964)"
                d="M24 4c0.682 0 1.244 0.511 1.324 1.171l0.001 0.006 0.010 0.155v21.334c-0.009 0.73-0.603 1.318-1.334 1.318-0.676 0-1.235-0.503-1.323-1.156l-0.001-0.007-0.010-0.155v-6.667h-1.333c-0 0-0.001 0-0.001 0-0.681 0-1.243-0.511-1.323-1.171l-0.001-0.006-0.010-0.155v-8c0-2.947 2-6.667 4-6.667zM16 4c0.682 0 1.244 0.511 1.324 1.171l0.001 0.006 0.010 0.155v6.667c-0.001 2.472-1.682 4.551-3.963 5.156l-0.037 0.008v9.502c0 0.003 0 0.006 0 0.010 0 0.736-0.597 1.333-1.333 1.333-0.685 0-1.249-0.517-1.324-1.181l-0.001-0.006-0.010-0.155v-9.502c-2.229-0.59-3.867-2.532-3.993-4.876l-0.001-0.013-0.006-0.275v-6.667c0.003-0.734 0.598-1.328 1.333-1.328 0.68 0 1.241 0.509 1.323 1.167l0.001 0.006 0.011 0.155v6.667c0 0.981 0.531 1.839 1.32 2.302l0.013 0.007v-8.976c0.002-0.734 0.598-1.328 1.333-1.328 0.68 0 1.241 0.509 1.323 1.167l0.001 0.006 0.011 0.155v8.976c0.738-0.432 1.245-1.191 1.322-2.073l0.001-0.010 0.010-0.226v-6.667c0-0.736 0.597-1.333 1.333-1.333v0z">
            </path>
            <path fill="none" stroke="#efede8" stroke-width="1.6" stroke-miterlimit="4" stroke-linecap="butt"
                stroke-linejoin="miter" style="stroke: var(--color2, #efede8)"
                d="M-9.6-28h260.8c10.162 0 18.4 8.238 18.4 18.4v147.2c0 10.162-8.238 18.4-18.4 18.4h-260.8c-10.162 0-18.4-8.238-18.4-18.4v-147.2c0-10.162 8.238-18.4 18.4-18.4z">
            </path>
        </symbol>
        <symbol id="icon-Back-button" viewBox="0 0 32 32">
            <path fill="#efede8" style="fill: var(--color2, #efede8)"
                d="M21.086 1.086l2.828 2.828-11.586 11.586 11.586 11.586-2.828 2.828-14.414-14.414 14.414-14.414z">
            </path>
        </symbol>
        <symbol id="icon-Calendar" viewBox="0 0 32 32">
            <path fill="none" stroke="#ef8964" stroke-width="2.4" stroke-miterlimit="4" stroke-linecap="round"
                stroke-linejoin="round" style="stroke: var(--color1, #ef8964)"
                d="M25.333 5.333h-18.667c-1.473 0-2.667 1.194-2.667 2.667v0 18.667c0 1.473 1.194 2.667 2.667 2.667v0h18.667c1.473 0 2.667-1.194 2.667-2.667v0-18.667c0-1.473-1.194-2.667-2.667-2.667v0zM21.333 2.667v5.333M10.667 2.667v5.333M4 13.333h24">
            </path>
        </symbol>
        <symbol id="icon-Calories-burns" viewBox="0 0 32 32">
            <path fill="#ef8964" style="fill: var(--color1, #ef8964)"
                d="M16 22.291c-0.944 0.72-2.896 2.501-2.896 4.925 0 1.602 1.299 2.904 2.896 2.904s2.896-1.302 2.896-2.904c0-2.296-1.952-4.16-2.896-4.925z">
            </path>
            <path fill="#ef8964" style="fill: var(--color1, #ef8964)"
                d="M22.79 5.57c-0.172-0.194-0.423-0.316-0.701-0.316-0.247 0-0.472 0.096-0.64 0.253l0-0-4.41 4.117v-8.622c0-0.722-0.87-1.261-1.522-0.867-0.126 0.075-3.058 1.867-6.019 5.117-3.602 3.952-6.056 8.765-6.056 14.163 0 6.941 5.632 12.587 12.557 12.587-2.637-0.007-4.771-2.146-4.771-4.784 0 0 0 0 0-0v0c0-4.261 4.138-6.784 4.314-6.891 0.137-0.083 0.303-0.132 0.48-0.132 0.192 0 0.37 0.058 0.519 0.157l-0.003-0.002c0.173 0.114 4.235 2.838 4.235 6.869 0 0 0 0 0 0 0 2.638-2.136 4.778-4.772 4.784h-0.001c6.925 0 12.557-5.648 12.557-12.587 0-5.242-2.312-9.938-5.766-13.843z">
            </path>
        </symbol>
        <symbol id="icon-Calories-consumed" viewBox="0 0 32 32">
            <path fill="#ef8964" style="fill: var(--color1, #ef8964)"
                d="M19.456 4.758c0.325-0.107 0.556-0.407 0.556-0.762 0-0.442-0.358-0.8-0.8-0.8-0.095 0-0.186 0.016-0.27 0.047l0.006-0.002c-1.501 0.499-2.435 1.731-2.986 3.051-0.054 0.121-0.123 0.301-0.185 0.483l-0.018 0.059c-0.718-1.345-1.864-2.383-3.252-2.948l-0.043-0.015c-0.698-0.285-1.508-0.451-2.356-0.451-0.066 0-0.132 0.001-0.197 0.003l0.010-0c-0.928 0.026-1.67 0.768-1.696 1.694-0.002 0.055-0.003 0.12-0.003 0.185 0 1.765 0.716 3.363 1.875 4.519l0 0 0.050 0.048c-2.738 0.608-4.794 2.906-5.027 5.722l-0.002 0.023-0.010 0.118c-0.028 0.325-0.043 0.704-0.043 1.087 0 2.387 0.615 4.63 1.695 6.58l-0.035-0.070 0.576 1.053c0.016 0.027 0.032 0.054 0.051 0.080l1.6 2.243c0.789 1.095 2.061 1.799 3.496 1.799 1.186 0 2.26-0.481 3.038-1.258l-0 0c0.132-0.132 0.314-0.214 0.516-0.214s0.384 0.082 0.516 0.214l0 0c0.777 0.778 1.852 1.259 3.038 1.259 1.436 0 2.707-0.705 3.487-1.787l0.009-0.013 1.6-2.242c0.017-0.023 0.034-0.050 0.049-0.078l0.002-0.004 0.576-1.053c1.045-1.88 1.659-4.123 1.659-6.51 0-0.382-0.016-0.761-0.047-1.136l0.003 0.049-0.010-0.118c-0.271-3.308-3.022-5.889-6.377-5.889-0.373 0-0.738 0.032-1.093 0.093l0.038-0.005-2.651 0.442c0.016-1.090 0.208-2.315 0.64-3.349 0.448-1.080 1.112-1.848 2.011-2.149h0.002zM11.056 14.358c-0.503 0.162-0.908 0.508-1.144 0.957l-0.005 0.011c-0.296 0.557-0.499 1.475-0.312 2.974 0.003 0.024 0.004 0.052 0.004 0.080 0 0.442-0.358 0.8-0.8 0.8-0.4 0-0.732-0.294-0.791-0.678l-0.001-0.004c-0.213-1.702-0.016-2.984 0.488-3.926 0.512-0.96 1.291-1.478 2.053-1.733 0.075-0.026 0.162-0.041 0.253-0.041 0.442 0 0.8 0.358 0.8 0.8 0 0.351-0.227 0.65-0.542 0.758l-0.006 0.002z">
            </path>
        </symbol>
        <symbol id="icon-Daily-norms-of-sports" viewBox="0 0 32 32">
            <path fill="#ef8964" style="fill: var(--color1, #ef8964)"
                d="M5.2 8h-2.4c-0.001 0-0.002 0-0.003 0-0.661 0-1.197 0.536-1.197 1.197 0 0.001 0 0.002 0 0.003v-0 5.2h-1.2c-0.221 0-0.4 0.179-0.4 0.4v0 2.4c0 0.219 0.181 0.4 0.4 0.4h1.2v5.2c0 0.666 0.534 1.2 1.2 1.2h2.4c0.666 0 1.2-0.534 1.2-1.2v-13.6c0-0.001 0-0.002 0-0.003 0-0.661-0.536-1.197-1.197-1.197-0.001 0-0.002 0-0.003 0h0zM31.6 14.4h-1.2v-5.2c0-0.001 0-0.002 0-0.003 0-0.661-0.536-1.197-1.197-1.197-0.001 0-0.002 0-0.003 0h-2.4c-0.001 0-0.002 0-0.003 0-0.661 0-1.197 0.536-1.197 1.197 0 0.001 0 0.002 0 0.003v-0 13.6c0 0.666 0.534 1.2 1.2 1.2h2.4c0.666 0 1.2-0.534 1.2-1.2v-5.2h1.2c0.221 0 0.4-0.179 0.4-0.4v0-2.4c0-0.221-0.179-0.4-0.4-0.4v0zM22.8 4.8h-2.4c-0.001 0-0.002 0-0.003 0-0.661 0-1.197 0.536-1.197 1.197 0 0.001 0 0.002 0 0.003v-0 8.4h-6.4v-8.4c0-0.001 0-0.002 0-0.003 0-0.661-0.536-1.197-1.197-1.197-0.001 0-0.002 0-0.003 0h-2.4c-0.001 0-0.002 0-0.003 0-0.661 0-1.197 0.536-1.197 1.197 0 0.001 0 0.002 0 0.003v-0 20c0 0.666 0.534 1.2 1.2 1.2h2.4c0.666 0 1.2-0.534 1.2-1.2v-8.4h6.4v8.4c0 0.666 0.534 1.2 1.2 1.2h2.4c0.666 0 1.2-0.534 1.2-1.2v-20c0-0.001 0-0.002 0-0.003 0-0.661-0.536-1.197-1.197-1.197-0.001 0-0.002 0-0.003 0h0z">
            </path>
        </symbol>
        <symbol id="icon-Delete-button" viewBox="0 0 32 32">
            <path fill="none" stroke="#ef8964" stroke-width="2.4" stroke-miterlimit="4" stroke-linecap="round"
                stroke-linejoin="round" style="stroke: var(--color1, #ef8964)"
                d="M12 4h8M13.333 14v6.667M18.667 14v6.667M4 8h24M25.333 8l-0.934 14.026c-0.141 2.104-0.211 3.157-0.666 3.955-0.405 0.703-0.997 1.258-1.708 1.609l-0.023 0.010c-0.826 0.4-1.88 0.4-3.989 0.4h-4.026c-2.109 0-3.163 0-3.989-0.4-0.734-0.361-1.326-0.917-1.721-1.6l-0.010-0.019c-0.454-0.8-0.525-1.851-0.666-3.955l-0.934-14.026">
            </path>
        </symbol>
        <symbol id="icon-Exclemation" viewBox="0 0 32 32">
            <path fill="#efa082" style="fill: var(--color6, #efa082)"
                d="M32 16c0 8.837-7.163 16-16 16s-16-7.163-16-16c0-8.837 7.163-16 16-16s16 7.163 16 16z"></path>
            <path fill="none" stroke="#efede8" stroke-width="2.6667" stroke-miterlimit="4" stroke-linecap="round"
                stroke-linejoin="round" style="stroke: var(--color2, #efede8)" d="M16 25.333v0.013M16 20v-13.333">
            </path>
        </symbol>
        <symbol id="icon-Next-buttom" viewBox="0 0 32 32">
            <path fill="#efede8" style="fill: var(--color2, #efede8)"
                d="M10.914 29.914l-2.828-2.828 11.586-11.586-11.586-11.586 2.828-2.828 14.414 14.414-14.414 14.414z">
            </path>
        </symbol>
        <symbol id="icon-Redirect-Button" viewBox="0 0 32 32">
            <path fill="none" stroke="#e6533c" stroke-width="2.6" stroke-miterlimit="4" stroke-linecap="round"
                stroke-linejoin="round" style="stroke: var(--color5, #e6533c)" d="M15 28l13-13M28 15l-13-13M28 15h-26">
            </path>
        </symbol>
        <symbol id="icon-Rest-calories" viewBox="0 0 32 32">
            <path fill="#ef8964" style="fill: var(--color1, #ef8964)"
                d="M20.794 16.346c3.778 0 6.84-3.062 6.84-6.84s-3.062-6.84-6.84-6.84v0c-3.778 0-6.84 3.062-6.84 6.84s3.062 6.84 6.84 6.84v0zM8.475 25.92c2.268 0 4.107-1.839 4.107-4.107s-1.839-4.107-4.107-4.107v0c-2.233 0.045-4.026 1.867-4.026 4.106s1.793 4.061 4.022 4.106l0.004 0zM22.15 29.333c1.885 0 3.414-1.528 3.414-3.414s-1.528-3.414-3.414-3.414v0c-1.885 0-3.414 1.528-3.414 3.414s1.528 3.414 3.414 3.414v0z">
            </path>
        </symbol>
        <symbol id="icon-Rest-of-sports" viewBox="0 0 32 32">
            <path fill="#ef8964" style="fill: var(--color1, #ef8964)"
                d="M29.648 9.451c-0.219-0.26-0.545-0.424-0.909-0.424-0.29 0-0.556 0.104-0.762 0.277l0.002-0.002-3.28 2.757-1.51-3.739c-0.056-0.14-0.134-0.261-0.229-0.364l0.001 0.001c-0.321-0.716-0.875-1.281-1.563-1.608l-0.019-0.008c-0.32-0.146-0.651-0.224-0.982-0.262-0.072-0.038-0.139-0.088-0.222-0.114l-5.776-1.61c-0.093-0.026-0.199-0.041-0.31-0.041-0.223 0-0.432 0.062-0.611 0.169l0.005-0.003c-0.33 0.108-0.59 0.352-0.717 0.664l-0.003 0.008-2.174 5.592c-0.050 0.127-0.079 0.273-0.079 0.427 0 0.501 0.31 0.929 0.748 1.103l0.008 0.003c0.126 0.050 0.272 0.079 0.425 0.079 0.5 0 0.928-0.31 1.103-0.748l0.003-0.008 1.837-4.723 2.63 0.733c-0.064 0.102-0.133 0.2-0.186 0.31l-3.371 7.312c-0.048 0.107-0.075 0.216-0.11 0.326l-4.098 6.87-6.859 2.294c-0.42 0.323-0.687 0.826-0.687 1.391 0 0.968 0.784 1.752 1.752 1.752 0.381 0 0.733-0.122 1.021-0.328l-0.005 0.004 7.019-2.416c0.216-0.157 0.371-0.362 0.49-0.581 0.088-0.094 0.189-0.168 0.256-0.285l2.443-4.096 4.336 3.696-4.64 5.229c-0.273 0.307-0.439 0.714-0.439 1.16 0 0.967 0.784 1.751 1.751 1.751 0.521 0 0.99-0.228 1.31-0.589l0.002-0.002 5.79-6.523c0.179-0.202 0.288-0.432 0.36-0.675 0.043-0.131 0.043-0.269 0.053-0.406 0-0.069 0.027-0.131 0.021-0.195-0.009-0.509-0.239-0.963-0.598-1.272l-0.002-0.002-3.992-3.403c0.288-0.274 0.533-0.6 0.709-0.982l2.586-5.6 0.829 2.208c0.031 0.211 0.116 0.398 0.242 0.551l-0.002-0.002c0.121 0.138 0.273 0.247 0.445 0.314l0.008 0.003c0.018 0.008 0.038 0.010 0.059 0.016 0.096 0.040 0.208 0.069 0.325 0.080l0.005 0c0.024 0.002 0.052 0.003 0.081 0.003 0.116 0 0.227-0.017 0.332-0.050l-0.008 0.002h0.005c0.037-0.010 0.074-0.003 0.11-0.019 0.186-0.076 0.343-0.192 0.464-0.337l0.002-0.002 4.71-3.997c0.501-0.422 0.288-1.168-0.133-1.667zM23.69 6.602c1.823 0 3.301-1.478 3.301-3.301s-1.478-3.301-3.301-3.301v0c-1.823 0-3.301 1.478-3.301 3.301s1.478 3.301 3.301 3.301v0z">
            </path>
        </symbol>
    </defs>
</svg>