<svg width="103" height="102" viewBox="0 0 103 102" fill="none" xmlns="http://www.w3.org/2000/svg">
<g id="gridicons:user">
<path id="Vector" d="M51.5 17C56.0087 17 60.3327 18.7911 63.5208 21.9792C66.709 25.1673 68.5 29.4913 68.5 34C68.5 38.5087 66.709 42.8327 63.5208 46.0208C60.3327 49.209 56.0087 51 51.5 51C46.9913 51 42.6673 49.209 39.4792 46.0208C36.2911 42.8327 34.5 38.5087 34.5 34C34.5 29.4913 36.2911 25.1673 39.4792 21.9792C42.6673 18.7911 46.9913 17 51.5 17ZM51.5 85C51.5 85 85.5 85 85.5 76.5C85.5 66.3 68.925 55.25 51.5 55.25C34.075 55.25 17.5 66.3 17.5 76.5C17.5 85 51.5 85 51.5 85Z" fill="#EFEDE8" fill-opacity="0.1"/>
</g>
</svg>
