<svg width="82" height="13" viewBox="0 0 82 13" fill="none" xmlns="http://www.w3.org/2000/svg">
<path d="M0 12.2955V1.28637H4.11949C4.74565 1.28637 5.31139 1.43578 5.81672 1.7346C6.32753 2.03342 6.73124 2.43447 7.02785 2.93775C7.32445 3.44102 7.47275 3.9941 7.47275 4.59699C7.47275 5.2156 7.31896 5.77654 7.01137 6.27982C6.70927 6.77785 6.30282 7.17628 5.792 7.4751C5.28118 7.76868 4.72368 7.91547 4.11949 7.91547H2.01031V12.2955H0ZM2.01031 5.99672H3.90528C4.19089 5.99672 4.45179 5.92857 4.68798 5.79227C4.92416 5.65596 5.11091 5.47248 5.24823 5.24181C5.39104 5.01114 5.46244 4.75426 5.46244 4.47117C5.46244 4.18283 5.39104 3.92333 5.24823 3.69266C5.11091 3.46199 4.92416 3.27851 4.68798 3.1422C4.45179 3.0059 4.19089 2.93775 3.90528 2.93775H2.01031V5.99672Z" fill="#EFEDE8"/>
<path d="M12.0411 12.5C11.2832 12.5 10.5911 12.3139 9.96491 11.9417C9.34424 11.5695 8.84716 11.0714 8.47366 10.4476C8.10565 9.81848 7.92165 9.12385 7.92165 8.3637C7.92165 7.78703 8.02875 7.24967 8.24297 6.75164C8.45718 6.24836 8.75104 5.80799 9.12454 5.43054C9.50353 5.04784 9.94294 4.74902 10.4428 4.53408C10.9426 4.31914 11.4754 4.21167 12.0411 4.21167C12.7991 4.21167 13.4884 4.39777 14.1091 4.76999C14.7353 5.1422 15.2324 5.64286 15.6004 6.27195C15.9739 6.90105 16.1606 7.5983 16.1606 8.3637C16.1606 8.93512 16.0535 9.46986 15.8393 9.96789C15.6251 10.4659 15.3285 10.9063 14.9495 11.289C14.576 11.6664 14.1393 11.9626 13.6395 12.1776C13.1452 12.3925 12.6124 12.5 12.0411 12.5ZM12.0411 10.5813C12.4421 10.5813 12.8019 10.479 13.1204 10.2746C13.439 10.0701 13.6889 9.80013 13.8702 9.46461C14.0569 9.1291 14.1503 8.76212 14.1503 8.3637C14.1503 7.95478 14.0542 7.58257 13.8619 7.24705C13.6752 6.90629 13.4198 6.6363 13.0957 6.43709C12.7772 6.23263 12.4256 6.13041 12.0411 6.13041C11.6457 6.13041 11.2886 6.23263 10.9701 6.43709C10.6515 6.64155 10.3988 6.91416 10.2121 7.25492C10.0253 7.59568 9.93196 7.96527 9.93196 8.3637C9.93196 8.77785 10.0281 9.15269 10.2203 9.4882C10.4126 9.82372 10.668 10.0911 10.9865 10.2903C11.3106 10.4843 11.6621 10.5813 12.0411 10.5813Z" fill="#EFEDE8"/>
<path d="M21.3086 12.2955H19.3147L16.5629 4.43185H18.532L20.3199 9.51966L22.0995 4.43185H24.0851L25.8647 9.51966L27.6526 4.43185H29.6217L26.8699 12.2955H24.876L23.0882 7.18414L21.3086 12.2955Z" fill="#EFEDE8"/>
<path d="M34.1512 12.5C33.3932 12.5 32.7011 12.3139 32.075 11.9417C31.4543 11.5695 30.9572 11.0688 30.5837 10.4397C30.2157 9.81062 30.0317 9.11599 30.0317 8.35583C30.0317 7.7844 30.1388 7.24967 30.353 6.75164C30.5672 6.24836 30.8611 5.80799 31.2346 5.43054C31.6136 5.04784 32.053 4.74902 32.5528 4.53408C33.0527 4.31914 33.5855 4.21167 34.1512 4.21167C34.7938 4.21167 35.3816 4.34273 35.9143 4.60485C36.4526 4.86173 36.9085 5.2156 37.282 5.66645C37.6555 6.1173 37.9274 6.63106 38.0977 7.20773C38.2679 7.7844 38.3064 8.38729 38.213 9.01638H32.1903C32.2672 9.30996 32.3936 9.57471 32.5693 9.81062C32.7451 10.0413 32.9675 10.2274 33.2367 10.3689C33.5058 10.5052 33.8107 10.576 34.1512 10.5813C34.5027 10.5865 34.8213 10.5079 35.1069 10.3453C35.398 10.1776 35.6397 9.95216 35.832 9.66907L37.8835 10.1252C37.5484 10.8224 37.0486 11.3938 36.384 11.8394C35.7194 12.2798 34.9751 12.5 34.1512 12.5ZM32.1244 7.57733H36.178C36.1176 7.26278 35.9885 6.97969 35.7908 6.72805C35.5985 6.47117 35.3596 6.26671 35.074 6.11468C34.7883 5.96265 34.4808 5.88663 34.1512 5.88663C33.8216 5.88663 33.5168 5.96265 33.2367 6.11468C32.9566 6.26147 32.7176 6.4633 32.5199 6.72018C32.3276 6.97182 32.1958 7.25754 32.1244 7.57733Z" fill="#EFEDE8"/>
<path d="M39.5618 12.2955L39.5535 4.43185H41.5638L41.5721 5.13172C41.8522 4.84862 42.1872 4.62582 42.5772 4.4633C42.9672 4.29554 43.3874 4.21167 43.8378 4.21167C44.1399 4.21167 44.442 4.2536 44.7441 4.33748L43.9531 6.27195C43.7444 6.19332 43.5357 6.154 43.327 6.154C43.0029 6.154 42.7063 6.23001 42.4372 6.38204C42.1735 6.52883 41.9621 6.73067 41.8028 6.98755C41.649 7.23919 41.5721 7.51966 41.5721 7.82896V12.2955H39.5618Z" fill="#EFEDE8"/>
<path d="M45.6684 12.2955V1.28637H49.7879C50.414 1.28637 50.9798 1.43578 51.4851 1.7346C51.9959 2.03342 52.3996 2.43447 52.6962 2.93775C52.9928 3.44102 53.1411 3.9941 53.1411 4.59699C53.1411 5.2156 52.9873 5.77654 52.6798 6.27982C52.3777 6.77785 51.9712 7.17628 51.4604 7.4751C50.9496 7.76868 50.3921 7.91547 49.7879 7.91547H47.6787V12.2955H45.6684ZM47.6787 5.99672H49.5737C49.8593 5.99672 50.1202 5.92857 50.3564 5.79227C50.5926 5.65596 50.7793 5.47248 50.9166 5.24181C51.0594 5.01114 51.1308 4.75426 51.1308 4.47117C51.1308 4.18283 51.0594 3.92333 50.9166 3.69266C50.7793 3.46199 50.5926 3.27851 50.3564 3.1422C50.1202 3.0059 49.8593 2.93775 49.5737 2.93775H47.6787V5.99672Z" fill="#EFEDE8"/>
<path d="M53.9962 9.38598V4.43185H56.0065V8.8827C56.0065 9.19201 56.0861 9.4751 56.2454 9.73198C56.4047 9.98362 56.6162 10.1855 56.8798 10.3375C57.149 10.4843 57.4428 10.5577 57.7614 10.5577C58.091 10.5577 58.3876 10.4843 58.6512 10.3375C58.9149 10.1855 59.1263 9.98362 59.2856 9.73198C59.4449 9.4751 59.5246 9.19201 59.5246 8.8827V4.43185H61.5349L61.5431 12.2955H59.5328L59.5246 11.5799C59.2389 11.863 58.9011 12.0885 58.5112 12.2562C58.1212 12.4187 57.7037 12.5 57.2588 12.5C56.6601 12.5 56.1136 12.3611 55.6193 12.0832C55.1249 11.8001 54.7295 11.4253 54.4329 10.9587C54.1418 10.4869 53.9962 9.96265 53.9962 9.38598Z" fill="#EFEDE8"/>
<path d="M63.2406 12.2955V0.5H65.2509V12.2955H63.2406Z" fill="#EFEDE8"/>
<path d="M69.6618 12.4371C69.2334 12.4109 68.8187 12.3296 68.4177 12.1933C68.0223 12.0518 67.6708 11.8604 67.3632 11.6193C67.0556 11.3781 66.8194 11.0898 66.6546 10.7543L68.3518 10.0623C68.4177 10.1671 68.5249 10.2798 68.6732 10.4004C68.8215 10.5157 68.9972 10.6127 69.2005 10.6913C69.4092 10.77 69.6371 10.8093 69.8843 10.8093C70.093 10.8093 70.2907 10.7831 70.4775 10.7307C70.6697 10.673 70.8235 10.5865 70.9389 10.4712C71.0597 10.3558 71.1201 10.2064 71.1201 10.0229C71.1201 9.82897 71.0487 9.67955 70.9059 9.57471C70.7686 9.46461 70.5928 9.38336 70.3786 9.33093C70.1699 9.27326 69.9667 9.22084 69.7689 9.17366C69.2471 9.07405 68.761 8.9194 68.3106 8.7097C67.8657 8.5 67.506 8.23001 67.2313 7.89974C66.9622 7.56422 66.8276 7.16055 66.8276 6.68873C66.8276 6.16972 66.9704 5.72149 67.2561 5.34404C67.5472 4.96658 67.9234 4.67562 68.3848 4.47117C68.8517 4.26671 69.3542 4.16448 69.8925 4.16448C70.5462 4.16448 71.1449 4.29554 71.6886 4.55767C72.2379 4.81455 72.6718 5.1789 72.9904 5.65072L71.4003 6.54718C71.3234 6.42136 71.2163 6.30603 71.0789 6.20118C70.9416 6.09109 70.7851 6.00197 70.6093 5.93381C70.4336 5.86042 70.2495 5.81848 70.0573 5.808C69.8101 5.79751 69.5849 5.81848 69.3817 5.8709C69.1785 5.92333 69.0137 6.01245 68.8874 6.13827C68.7665 6.26409 68.7061 6.43185 68.7061 6.64155C68.7061 6.84076 68.7885 6.99017 68.9533 7.08978C69.1181 7.18414 69.3158 7.25754 69.5465 7.30996C69.7827 7.36239 70.0079 7.42005 70.2221 7.48296C70.7054 7.63499 71.1586 7.8211 71.5815 8.04129C72.0099 8.26147 72.3532 8.53146 72.6114 8.85125C72.8695 9.17104 72.9931 9.55374 72.9821 9.99934C72.9821 10.5079 72.8229 10.9535 72.5043 11.3362C72.1857 11.7136 71.7738 12.002 71.2684 12.2012C70.7686 12.4004 70.2331 12.479 69.6618 12.4371Z" fill="#EFEDE8"/>
<path d="M77.8886 12.5C77.1306 12.5 76.4385 12.3139 75.8124 11.9417C75.1917 11.5695 74.6946 11.0688 74.3211 10.4397C73.9531 9.81062 73.7691 9.11599 73.7691 8.35583C73.7691 7.7844 73.8762 7.24967 74.0904 6.75164C74.3046 6.24836 74.5985 5.80799 74.972 5.43054C75.351 5.04784 75.7904 4.74902 76.2902 4.53408C76.7901 4.31914 77.3228 4.21167 77.8886 4.21167C78.5312 4.21167 79.1189 4.34273 79.6517 4.60485C80.19 4.86173 80.6459 5.2156 81.0194 5.66645C81.3929 6.1173 81.6648 6.63106 81.8351 7.20773C82.0053 7.7844 82.0438 8.38729 81.9504 9.01638H75.9277C76.0046 9.30996 76.1309 9.57471 76.3067 9.81062C76.4825 10.0413 76.7049 10.2274 76.9741 10.3689C77.2432 10.5052 77.548 10.576 77.8886 10.5813C78.2401 10.5865 78.5587 10.5079 78.8443 10.3453C79.1354 10.1776 79.3771 9.95216 79.5693 9.66907L81.6208 10.1252C81.2858 10.8224 80.786 11.3938 80.1213 11.8394C79.4567 12.2798 78.7125 12.5 77.8886 12.5ZM75.8618 7.57733H79.9154C79.8549 7.26278 79.7259 6.97969 79.5281 6.72805C79.3359 6.47117 79.097 6.26671 78.8113 6.11468C78.5257 5.96265 78.2181 5.88663 77.8886 5.88663C77.559 5.88663 77.2542 5.96265 76.9741 6.11468C76.6939 6.26147 76.455 6.4633 76.2573 6.72018C76.065 6.97182 75.9332 7.25754 75.8618 7.57733Z" fill="#EFEDE8"/>
</svg>
