<svg width="16" height="16" viewBox="0 0 16 16" fill="none" xmlns="http://www.w3.org/2000/svg">
<g clip-path="url(#clip0_8_39)">
<path d="M14.8234 4.72544C14.6138 4.47504 14.2403 4.44212 13.9899 4.65092L12.349 6.02938L11.5943 4.15967C11.5675 4.08949 11.5267 4.03057 11.4799 3.97859C11.3257 3.63549 11.058 3.34091 10.6889 3.17023C10.5286 3.09745 10.3631 3.05846 10.1977 3.0394C10.1613 3.02034 10.1283 2.99521 10.0868 2.98222L7.19901 2.17732C7.03699 2.13314 6.87411 2.16173 6.74068 2.2397C6.58213 2.29342 6.4461 2.40865 6.38112 2.57587L5.29378 5.37178C5.17594 5.67589 5.3267 6.01899 5.63168 6.13855C5.93492 6.25638 6.27888 6.10476 6.39758 5.79978L7.31598 3.43882L8.63119 3.80444C8.59913 3.85643 8.56447 3.90495 8.53848 3.9604L6.85245 7.61491C6.82819 7.66863 6.81519 7.72322 6.79786 7.77867L4.7488 11.214L1.31955 12.3611C0.931399 12.6514 0.84909 13.1981 1.13587 13.5862C1.42439 13.9752 1.97282 14.0575 2.36011 13.7708L5.86907 12.5621C5.97651 12.4841 6.05448 12.3819 6.1134 12.2719C6.15759 12.2251 6.20784 12.1878 6.24163 12.1298L7.46327 10.0816L9.63189 11.9296L7.31165 14.5445C6.99194 14.9049 7.024 15.4603 7.38616 15.7791C7.74745 16.1005 8.30108 16.0667 8.62252 15.7046L11.5181 12.4426C11.6082 12.342 11.6619 12.2259 11.6983 12.1047C11.7199 12.0388 11.7199 11.9704 11.7251 11.9019C11.7251 11.8673 11.7381 11.8361 11.7355 11.804C11.7277 11.5649 11.6307 11.3327 11.4349 11.1672L9.43955 9.46557C9.58337 9.32867 9.70554 9.16579 9.79391 8.97431L11.0866 6.17494L11.5007 7.27788C11.5181 7.37578 11.551 7.47196 11.6203 7.55253C11.6827 7.62704 11.7624 7.67643 11.8473 7.71109C11.856 7.71542 11.8664 7.71628 11.8768 7.71888C11.9305 7.73794 11.9851 7.75614 12.0414 7.75874C12.1081 7.7648 12.1757 7.75614 12.2441 7.73708C12.2459 7.73621 12.2467 7.73621 12.2467 7.73621C12.2649 7.73188 12.2831 7.73534 12.3013 7.72755C12.3975 7.69116 12.4711 7.62964 12.5344 7.55773L14.8893 5.55892C15.1397 5.34838 15.034 4.97583 14.8234 4.72544Z" fill="#EFEDE8"/>
<path d="M11.8446 3.30102C12.7562 3.30102 13.4951 2.56206 13.4951 1.65051C13.4951 0.738959 12.7562 0 11.8446 0C10.9331 0 10.1941 0.738959 10.1941 1.65051C10.1941 2.56206 10.9331 3.30102 11.8446 3.30102Z" fill="#EFEDE8"/>
</g>
<defs>
<clipPath id="clip0_8_39">
<rect width="16" height="16" fill="white"/>
</clipPath>
</defs>
</svg>
