<svg width="12" height="12" viewBox="0 0 12 12" fill="none" xmlns="http://www.w3.org/2000/svg">
<g clip-path="url(#clip0_130_10248)">
<path d="M11.1166 3.54408C10.9593 3.35628 10.6793 3.33159 10.4915 3.48819L9.26074 4.52204L8.69476 3.11975C8.67461 3.06712 8.64407 3.02293 8.60898 2.98394C8.49332 2.72662 8.29253 2.50568 8.01571 2.37767C7.89549 2.32309 7.77138 2.29385 7.64727 2.27955C7.61997 2.26525 7.59528 2.24641 7.56409 2.23666L5.39828 1.63299C5.27677 1.59985 5.1546 1.6213 5.05453 1.67978C4.93562 1.72007 4.8336 1.80649 4.78486 1.9319L3.96936 4.02883C3.88098 4.25692 3.99405 4.51424 4.22278 4.60391C4.45021 4.69229 4.70819 4.57857 4.79721 4.34984L5.48601 2.57911L6.47241 2.85333C6.44837 2.89232 6.42238 2.92871 6.40288 2.9703L5.13836 5.71118C5.12016 5.75147 5.11042 5.79241 5.09742 5.834L3.56063 8.41049L0.988687 9.27083C0.697573 9.48852 0.635841 9.89855 0.850927 10.1897C1.06731 10.4814 1.47864 10.5432 1.76911 10.3281L4.40083 9.42159C4.4814 9.3631 4.53989 9.28643 4.58407 9.2039C4.61721 9.16881 4.6549 9.14087 4.68024 9.09733L5.59647 7.56119L7.22294 8.94723L5.48276 10.9083C5.24298 11.1787 5.26702 11.5952 5.53864 11.8343C5.80961 12.0754 6.22484 12.0501 6.46592 11.7784L8.63757 9.33191C8.70515 9.25654 8.74544 9.16946 8.77273 9.07849C8.78898 9.0291 8.78898 8.97777 8.79288 8.92643C8.79288 8.90044 8.80262 8.87705 8.80068 8.85301C8.79483 8.67366 8.72205 8.49951 8.57519 8.3754L7.07868 7.09917C7.18655 6.99651 7.27818 6.87434 7.34446 6.73073L8.31397 4.6312L8.62458 5.45841C8.63757 5.53184 8.66227 5.60397 8.71425 5.6644C8.76104 5.72028 8.82082 5.75732 8.8845 5.78331C8.891 5.78656 8.8988 5.78721 8.90659 5.78916C8.94688 5.80346 8.98782 5.8171 9.03006 5.81905C9.08009 5.8236 9.13078 5.8171 9.18211 5.80281C9.18341 5.80216 9.18406 5.80216 9.18406 5.80216C9.19771 5.79891 9.21135 5.80151 9.225 5.79566C9.29713 5.76837 9.35236 5.72223 9.3998 5.6683L11.166 4.16919C11.3538 4.01129 11.2745 3.73187 11.1166 3.54408Z" fill="#EFEDE8"/>
<path d="M8.88241 2.47577C9.56608 2.47577 10.1203 1.92155 10.1203 1.23788C10.1203 0.554219 9.56608 0 8.88241 0C8.19875 0 7.64453 0.554219 7.64453 1.23788C7.64453 1.92155 8.19875 2.47577 8.88241 2.47577Z" fill="#EFEDE8"/>
</g>
<defs>
<clipPath id="clip0_130_10248">
<rect width="12" height="12" fill="white"/>
</clipPath>
</defs>
</svg>
